REM DIRINDEX 1\3,1\2\4,1\2\5,1\2\6
REM DIRNAME folder01,folder02,folder03,folder04,folder05,folder06
TITLE ""
FILE "071.mp3" MP3
  TRACK 01 AUDIO
    TITLE "4:cjc137_2906"
    INDEX 01 00:00:00
  TRACK 02 AUDIO
    TITLE "0:"
    INDEX 01 00:01:28
  TRACK 03 AUDIO
    TITLE "6:cjc137_2907"
    INDEX 01 00:01:32
  TRACK 04 AUDIO
    TITLE "0:"
    INDEX 01 00:02:65
  TRACK 05 AUDIO
    TITLE "5:cjc137_2908"
    INDEX 01 00:02:69
  TRACK 06 AUDIO
    TITLE "0:"
    INDEX 01 00:04:19
  TRACK 07 AUDIO
    TITLE "4:cjc137_2909"
    INDEX 01 00:05:28
  TRACK 08 AUDIO
    TITLE "0:"
    INDEX 01 00:06:33
  TRACK 09 AUDIO
    TITLE "6:cjc137_2910"
    INDEX 01 00:06:41
  TRACK 10 AUDIO
    TITLE "0:"
    INDEX 01 00:07:45
  TRACK 11 AUDIO
    TITLE "5:cjc137_2911"
    INDEX 01 00:07:52
  TRACK 12 AUDIO
    TITLE "0:"
    INDEX 01 00:08:56
  TRACK 13 AUDIO
    TITLE "4:cjc137_2912"
    INDEX 01 00:09:67
  TRACK 14 AUDIO
    TITLE "0:"
    INDEX 01 00:10:70
  TRACK 15 AUDIO
    TITLE "6:cjc137_2913"
    INDEX 01 00:11:01
  TRACK 16 AUDIO
    TITLE "0:"
    INDEX 01 00:11:66
  TRACK 17 AUDIO
    TITLE "5:cjc137_2914"
    INDEX 01 00:11:72
  TRACK 18 AUDIO
    TITLE "0:"
    INDEX 01 00:13:02
  TRACK 19 AUDIO
    TITLE "4:cjc137_2915"
    INDEX 01 00:14:07
  TRACK 20 AUDIO
    TITLE "0:"
    INDEX 01 00:15:25
  TRACK 21 AUDIO
    TITLE "6:cjc137_2916"
    INDEX 01 00:15:32
  TRACK 22 AUDIO
    TITLE "0:"
    INDEX 01 00:17:06
  TRACK 23 AUDIO
    TITLE "5:cjc137_2917"
    INDEX 01 00:17:12
  TRACK 24 AUDIO
    TITLE "0:"
    INDEX 01 00:18:29
  TRACK 25 AUDIO
    TITLE "4:cjc137_2918"
    INDEX 01 00:19:38
  TRACK 26 AUDIO
    TITLE "0:"
    INDEX 01 00:20:39
  TRACK 27 AUDIO
    TITLE "6:cjc137_2919"
    INDEX 01 00:20:43
  TRACK 28 AUDIO
    TITLE "0:"
    INDEX 01 00:21:45
  TRACK 29 AUDIO
    TITLE "5:cjc137_2920"
    INDEX 01 00:21:49
  TRACK 30 AUDIO
    TITLE "0:"
    INDEX 01 00:22:50
  TRACK 31 AUDIO
    TITLE "4:cjc137_2921"
    INDEX 01 00:23:57
  TRACK 32 AUDIO
    TITLE "0:"
    INDEX 01 00:24:57
  TRACK 33 AUDIO
    TITLE "6:cjc137_2922"
    INDEX 01 00:24:65
  TRACK 34 AUDIO
    TITLE "0:"
    INDEX 01 00:25:72
  TRACK 35 AUDIO
    TITLE "5:cjc137_2923"
    INDEX 01 00:26:05
  TRACK 36 AUDIO
    TITLE "0:"
    INDEX 01 00:27:06
  TRACK 37 AUDIO
    TITLE "4:cjc137_2924"
    INDEX 01 00:28:13
  TRACK 38 AUDIO
    TITLE "0:"
    INDEX 01 00:29:17
  TRACK 39 AUDIO
    TITLE "6:cjc137_2925"
    INDEX 01 00:29:23
  TRACK 40 AUDIO
    TITLE "0:"
    INDEX 01 00:30:32
  TRACK 41 AUDIO
    TITLE "5:cjc137_2926"
    INDEX 01 00:30:38
  TRACK 42 AUDIO
    TITLE "0:"
    INDEX 01 00:31:43
  TRACK 43 AUDIO
    TITLE "4:cjc137_2927"
    INDEX 01 00:32:48
  TRACK 44 AUDIO
    TITLE "0:"
    INDEX 01 00:33:66
  TRACK 45 AUDIO
    TITLE "6:cjc137_2928"
    INDEX 01 00:33:73
  TRACK 46 AUDIO
    TITLE "0:"
    INDEX 01 00:34:57
  TRACK 47 AUDIO
    TITLE "5:cjc137_2929"
    INDEX 01 00:34:61
  TRACK 48 AUDIO
    TITLE "0:"
    INDEX 01 00:36:07
  TRACK 49 AUDIO
    TITLE "4:cjc137_2930"
    INDEX 01 00:37:12
  TRACK 50 AUDIO
    TITLE "0:"
    INDEX 01 00:38:39
  TRACK 51 AUDIO
    TITLE "6:cjc137_2931"
    INDEX 01 00:38:43
  TRACK 52 AUDIO
    TITLE "0:"
    INDEX 01 00:39:58
  TRACK 53 AUDIO
    TITLE "5:cjc137_2932"
    INDEX 01 00:39:60
  TRACK 54 AUDIO
    TITLE "0:"
    INDEX 01 00:41:12
  TRACK 55 AUDIO
    TITLE "4:cjc137_2933"
    INDEX 01 00:42:18
  TRACK 56 AUDIO
    TITLE "0:"
    INDEX 01 00:43:23
  TRACK 57 AUDIO
    TITLE "6:cjc137_2934"
    INDEX 01 00:43:29
  TRACK 58 AUDIO
    TITLE "0:"
    INDEX 01 00:44:36
  TRACK 59 AUDIO
    TITLE "5:cjc137_2935"
    INDEX 01 00:44:40
  TRACK 60 AUDIO
    TITLE "0:"
    INDEX 01 00:45:45
  TRACK 61 AUDIO
    TITLE "4:cjc137_2936"
    INDEX 01 00:46:53
  TRACK 62 AUDIO
    TITLE "0:"
    INDEX 01 00:47:70
  TRACK 63 AUDIO
    TITLE "6:cjc137_2937"
    INDEX 01 00:48:00
  TRACK 64 AUDIO
    TITLE "0:"
    INDEX 01 00:49:31
  TRACK 65 AUDIO
    TITLE "5:cjc137_2938"
    INDEX 01 00:49:35
  TRACK 66 AUDIO
    TITLE "0:"
    INDEX 01 00:50:52
  TRACK 67 AUDIO
    TITLE "4:cjc137_2939"
    INDEX 01 00:51:62
  TRACK 68 AUDIO
    TITLE "0:"
    INDEX 01 00:52:63
  TRACK 69 AUDIO
    TITLE "6:cjc137_2940"
    INDEX 01 00:52:71
  TRACK 70 AUDIO
    TITLE "0:"
    INDEX 01 00:54:09
  TRACK 71 AUDIO
    TITLE "5:cjc137_2941"
    INDEX 01 00:54:15
  TRACK 72 AUDIO
    TITLE "0:"
    INDEX 01 00:55:18
  TRACK 73 AUDIO
    TITLE "4:cjc137_2942"
    INDEX 01 00:56:27
  TRACK 74 AUDIO
    TITLE "0:"
    INDEX 01 00:57:23
  TRACK 75 AUDIO
    TITLE "6:cjc137_2943"
    INDEX 01 00:57:45
  TRACK 76 AUDIO
    TITLE "0:"
    INDEX 01 00:58:42
  TRACK 77 AUDIO
    TITLE "5:cjc137_2944"
    INDEX 01 00:58:46
  TRACK 78 AUDIO
    TITLE "0:"
    INDEX 01 00:59:45
  TRACK 79 AUDIO
    TITLE "4:cjc137_2945"
    INDEX 01 01:00:66
  TRACK 80 AUDIO
    TITLE "0:"
    INDEX 01 01:02:12
  TRACK 81 AUDIO
    TITLE "6:cjc137_2946"
    INDEX 01 01:02:16
  TRACK 82 AUDIO
    TITLE "0:"
    INDEX 01 01:03:35
  TRACK 83 AUDIO
    TITLE "5:cjc137_2947"
    INDEX 01 01:03:41
  TRACK 84 AUDIO
    TITLE "0:"
    INDEX 01 01:04:64
